<?xml version="1.0" encoding="utf-8" standalone="no"?>
<!DOCTYPE svg PUBLIC "-//W3C//DTD SVG 1.1//EN"
  "http://www.w3.org/Graphics/SVG/1.1/DTD/svg11.dtd">
<svg xmlns:xlink="http://www.w3.org/1999/xlink" width="653.892187pt" height="225.26375pt" viewBox="0 0 653.892187 225.26375" xmlns="http://www.w3.org/2000/svg" version="1.1">
 <metadata>
  <rdf:RDF xmlns:dc="http://purl.org/dc/elements/1.1/" xmlns:cc="http://creativecommons.org/ns#" xmlns:rdf="http://www.w3.org/1999/02/22-rdf-syntax-ns#">
   <cc:Work>
    <dc:type rdf:resource="http://purl.org/dc/dcmitype/StillImage"/>
    <dc:date>2025-03-24T19:28:22.327048</dc:date>
    <dc:format>image/svg+xml</dc:format>
    <dc:creator>
     <cc:Agent>
      <dc:title>Matplotlib v3.9.2, https://matplotlib.org/</dc:title>
     </cc:Agent>
    </dc:creator>
   </cc:Work>
  </rdf:RDF>
 </metadata>
 <defs>
  <style type="text/css">*{stroke-linejoin: round; stroke-linecap: butt}</style>
 </defs>
 <g id="figure_1">
  <g id="patch_1">
   <path d="M 0 225.26375 
L 653.892187 225.26375 
L 653.892187 0 
L 0 0 
L 0 225.26375 
z
" style="fill: none"/>
  </g>
  <g id="axes_1">
   <g id="patch_2">
    <path d="M 79.209375 166.32 
L 637.209375 166.32 
L 637.209375 0 
L 79.209375 0 
L 79.209375 166.32 
z
" style="fill: none"/>
   </g>
   <g id="matplotlib.axis_1">
    <g id="xtick_1">
     <g id="line2d_1">
      <path d="M 79.209375 166.32 
L 79.209375 0 
" clip-path="url(#p8c11cc01b6)" style="fill: none; stroke: #b0b0b0; stroke-linecap: square"/>
     </g>
     <g id="line2d_2">
      <defs>
       <path id="mc07ed7d877" d="M 0 0 
L 0 5 
" style="stroke: #000000; stroke-width: 2"/>
      </defs>
      <g>
       <use xlink:href="#mc07ed7d877" x="79.209375" y="166.32" style="stroke: #000000; stroke-width: 2"/>
      </g>
     </g>
     <g id="text_1">
      <!-- 450 -->
      <g transform="translate(62.526563 189.135625) scale(0.2 -0.2)">
       <defs>
        <path id="ArialMT-34" d="M 2069 0 
L 2069 1097 
L 81 1097 
L 81 1613 
L 2172 4581 
L 2631 4581 
L 2631 1613 
L 3250 1613 
L 3250 1097 
L 2631 1097 
L 2631 0 
L 2069 0 
z
M 2069 1613 
L 2069 3678 
L 634 1613 
L 2069 1613 
z
" transform="scale(0.015625)"/>
        <path id="ArialMT-35" d="M 266 1200 
L 856 1250 
Q 922 819 1161 601 
Q 1400 384 1738 384 
Q 2144 384 2425 690 
Q 2706 997 2706 1503 
Q 2706 1984 2436 2262 
Q 2166 2541 1728 2541 
Q 1456 2541 1237 2417 
Q 1019 2294 894 2097 
L 366 2166 
L 809 4519 
L 3088 4519 
L 3088 3981 
L 1259 3981 
L 1013 2750 
Q 1425 3038 1878 3038 
Q 2478 3038 2890 2622 
Q 3303 2206 3303 1553 
Q 3303 931 2941 478 
Q 2500 -78 1738 -78 
Q 1113 -78 717 272 
Q 322 622 266 1200 
z
" transform="scale(0.015625)"/>
        <path id="ArialMT-30" d="M 266 2259 
Q 266 3072 433 3567 
Q 600 4063 929 4331 
Q 1259 4600 1759 4600 
Q 2128 4600 2406 4451 
Q 2684 4303 2865 4023 
Q 3047 3744 3150 3342 
Q 3253 2941 3253 2259 
Q 3253 1453 3087 958 
Q 2922 463 2592 192 
Q 2263 -78 1759 -78 
Q 1097 -78 719 397 
Q 266 969 266 2259 
z
M 844 2259 
Q 844 1131 1108 757 
Q 1372 384 1759 384 
Q 2147 384 2411 759 
Q 2675 1134 2675 2259 
Q 2675 3391 2411 3762 
Q 2147 4134 1753 4134 
Q 1366 4134 1134 3806 
Q 844 3388 844 2259 
z
" transform="scale(0.015625)"/>
       </defs>
       <use xlink:href="#ArialMT-34"/>
       <use xlink:href="#ArialMT-35" x="55.615234"/>
       <use xlink:href="#ArialMT-30" x="111.230469"/>
      </g>
     </g>
    </g>
    <g id="xtick_2">
     <g id="line2d_3">
      <path d="M 158.923661 166.32 
L 158.923661 0 
" clip-path="url(#p8c11cc01b6)" style="fill: none; stroke: #b0b0b0; stroke-linecap: square"/>
     </g>
     <g id="line2d_4">
      <g>
       <use xlink:href="#mc07ed7d877" x="158.923661" y="166.32" style="stroke: #000000; stroke-width: 2"/>
      </g>
     </g>
     <g id="text_2">
      <!-- 500 -->
      <g transform="translate(142.240848 189.135625) scale(0.2 -0.2)">
       <use xlink:href="#ArialMT-35"/>
       <use xlink:href="#ArialMT-30" x="55.615234"/>
       <use xlink:href="#ArialMT-30" x="111.230469"/>
      </g>
     </g>
    </g>
    <g id="xtick_3">
     <g id="line2d_5">
      <path d="M 238.637946 166.32 
L 238.637946 0 
" clip-path="url(#p8c11cc01b6)" style="fill: none; stroke: #b0b0b0; stroke-linecap: square"/>
     </g>
     <g id="line2d_6">
      <g>
       <use xlink:href="#mc07ed7d877" x="238.637946" y="166.32" style="stroke: #000000; stroke-width: 2"/>
      </g>
     </g>
     <g id="text_3">
      <!-- 550 -->
      <g transform="translate(221.955134 189.135625) scale(0.2 -0.2)">
       <use xlink:href="#ArialMT-35"/>
       <use xlink:href="#ArialMT-35" x="55.615234"/>
       <use xlink:href="#ArialMT-30" x="111.230469"/>
      </g>
     </g>
    </g>
    <g id="xtick_4">
     <g id="line2d_7">
      <path d="M 318.352232 166.32 
L 318.352232 0 
" clip-path="url(#p8c11cc01b6)" style="fill: none; stroke: #b0b0b0; stroke-linecap: square"/>
     </g>
     <g id="line2d_8">
      <g>
       <use xlink:href="#mc07ed7d877" x="318.352232" y="166.32" style="stroke: #000000; stroke-width: 2"/>
      </g>
     </g>
     <g id="text_4">
      <!-- 600 -->
      <g transform="translate(301.66942 189.135625) scale(0.2 -0.2)">
       <defs>
        <path id="ArialMT-36" d="M 3184 3459 
L 2625 3416 
Q 2550 3747 2413 3897 
Q 2184 4138 1850 4138 
Q 1581 4138 1378 3988 
Q 1113 3794 959 3422 
Q 806 3050 800 2363 
Q 1003 2672 1297 2822 
Q 1591 2972 1913 2972 
Q 2475 2972 2870 2558 
Q 3266 2144 3266 1488 
Q 3266 1056 3080 686 
Q 2894 316 2569 119 
Q 2244 -78 1831 -78 
Q 1128 -78 684 439 
Q 241 956 241 2144 
Q 241 3472 731 4075 
Q 1159 4600 1884 4600 
Q 2425 4600 2770 4297 
Q 3116 3994 3184 3459 
z
M 888 1484 
Q 888 1194 1011 928 
Q 1134 663 1356 523 
Q 1578 384 1822 384 
Q 2178 384 2434 671 
Q 2691 959 2691 1453 
Q 2691 1928 2437 2201 
Q 2184 2475 1800 2475 
Q 1419 2475 1153 2201 
Q 888 1928 888 1484 
z
" transform="scale(0.015625)"/>
       </defs>
       <use xlink:href="#ArialMT-36"/>
       <use xlink:href="#ArialMT-30" x="55.615234"/>
       <use xlink:href="#ArialMT-30" x="111.230469"/>
      </g>
     </g>
    </g>
    <g id="xtick_5">
     <g id="line2d_9">
      <path d="M 398.066518 166.32 
L 398.066518 0 
" clip-path="url(#p8c11cc01b6)" style="fill: none; stroke: #b0b0b0; stroke-linecap: square"/>
     </g>
     <g id="line2d_10">
      <g>
       <use xlink:href="#mc07ed7d877" x="398.066518" y="166.32" style="stroke: #000000; stroke-width: 2"/>
      </g>
     </g>
     <g id="text_5">
      <!-- 650 -->
      <g transform="translate(381.383705 189.135625) scale(0.2 -0.2)">
       <use xlink:href="#ArialMT-36"/>
       <use xlink:href="#ArialMT-35" x="55.615234"/>
       <use xlink:href="#ArialMT-30" x="111.230469"/>
      </g>
     </g>
    </g>
    <g id="xtick_6">
     <g id="line2d_11">
      <path d="M 477.780804 166.32 
L 477.780804 0 
" clip-path="url(#p8c11cc01b6)" style="fill: none; stroke: #b0b0b0; stroke-linecap: square"/>
     </g>
     <g id="line2d_12">
      <g>
       <use xlink:href="#mc07ed7d877" x="477.780804" y="166.32" style="stroke: #000000; stroke-width: 2"/>
      </g>
     </g>
     <g id="text_6">
      <!-- 700 -->
      <g transform="translate(461.097991 189.135625) scale(0.2 -0.2)">
       <defs>
        <path id="ArialMT-37" d="M 303 3981 
L 303 4522 
L 3269 4522 
L 3269 4084 
Q 2831 3619 2401 2847 
Q 1972 2075 1738 1259 
Q 1569 684 1522 0 
L 944 0 
Q 953 541 1156 1306 
Q 1359 2072 1739 2783 
Q 2119 3494 2547 3981 
L 303 3981 
z
" transform="scale(0.015625)"/>
       </defs>
       <use xlink:href="#ArialMT-37"/>
       <use xlink:href="#ArialMT-30" x="55.615234"/>
       <use xlink:href="#ArialMT-30" x="111.230469"/>
      </g>
     </g>
    </g>
    <g id="xtick_7">
     <g id="line2d_13">
      <path d="M 557.495089 166.32 
L 557.495089 0 
" clip-path="url(#p8c11cc01b6)" style="fill: none; stroke: #b0b0b0; stroke-linecap: square"/>
     </g>
     <g id="line2d_14">
      <g>
       <use xlink:href="#mc07ed7d877" x="557.495089" y="166.32" style="stroke: #000000; stroke-width: 2"/>
      </g>
     </g>
     <g id="text_7">
      <!-- 750 -->
      <g transform="translate(540.812277 189.135625) scale(0.2 -0.2)">
       <use xlink:href="#ArialMT-37"/>
       <use xlink:href="#ArialMT-35" x="55.615234"/>
       <use xlink:href="#ArialMT-30" x="111.230469"/>
      </g>
     </g>
    </g>
    <g id="xtick_8">
     <g id="line2d_15">
      <path d="M 637.209375 166.32 
L 637.209375 0 
" clip-path="url(#p8c11cc01b6)" style="fill: none; stroke: #b0b0b0; stroke-linecap: square"/>
     </g>
     <g id="line2d_16">
      <g>
       <use xlink:href="#mc07ed7d877" x="637.209375" y="166.32" style="stroke: #000000; stroke-width: 2"/>
      </g>
     </g>
     <g id="text_8">
      <!-- 800 -->
      <g transform="translate(620.526563 189.135625) scale(0.2 -0.2)">
       <defs>
        <path id="ArialMT-38" d="M 1131 2484 
Q 781 2613 612 2850 
Q 444 3088 444 3419 
Q 444 3919 803 4259 
Q 1163 4600 1759 4600 
Q 2359 4600 2725 4251 
Q 3091 3903 3091 3403 
Q 3091 3084 2923 2848 
Q 2756 2613 2416 2484 
Q 2838 2347 3058 2040 
Q 3278 1734 3278 1309 
Q 3278 722 2862 322 
Q 2447 -78 1769 -78 
Q 1091 -78 675 323 
Q 259 725 259 1325 
Q 259 1772 486 2073 
Q 713 2375 1131 2484 
z
M 1019 3438 
Q 1019 3113 1228 2906 
Q 1438 2700 1772 2700 
Q 2097 2700 2305 2904 
Q 2513 3109 2513 3406 
Q 2513 3716 2298 3927 
Q 2084 4138 1766 4138 
Q 1444 4138 1231 3931 
Q 1019 3725 1019 3438 
z
M 838 1322 
Q 838 1081 952 856 
Q 1066 631 1291 507 
Q 1516 384 1775 384 
Q 2178 384 2440 643 
Q 2703 903 2703 1303 
Q 2703 1709 2433 1975 
Q 2163 2241 1756 2241 
Q 1359 2241 1098 1978 
Q 838 1716 838 1322 
z
" transform="scale(0.015625)"/>
       </defs>
       <use xlink:href="#ArialMT-38"/>
       <use xlink:href="#ArialMT-30" x="55.615234"/>
       <use xlink:href="#ArialMT-30" x="111.230469"/>
      </g>
     </g>
    </g>
    <g id="text_9">
     <!-- Wavelength (nm) -->
     <g transform="translate(244.572656 218.949688) scale(0.3 -0.3)">
      <defs>
       <path id="ArialMT-57" d="M 1294 0 
L 78 4581 
L 700 4581 
L 1397 1578 
Q 1509 1106 1591 641 
Q 1766 1375 1797 1488 
L 2669 4581 
L 3400 4581 
L 4056 2263 
Q 4303 1400 4413 641 
Q 4500 1075 4641 1638 
L 5359 4581 
L 5969 4581 
L 4713 0 
L 4128 0 
L 3163 3491 
Q 3041 3928 3019 4028 
Q 2947 3713 2884 3491 
L 1913 0 
L 1294 0 
z
" transform="scale(0.015625)"/>
       <path id="ArialMT-61" d="M 2588 409 
Q 2275 144 1986 34 
Q 1697 -75 1366 -75 
Q 819 -75 525 192 
Q 231 459 231 875 
Q 231 1119 342 1320 
Q 453 1522 633 1644 
Q 813 1766 1038 1828 
Q 1203 1872 1538 1913 
Q 2219 1994 2541 2106 
Q 2544 2222 2544 2253 
Q 2544 2597 2384 2738 
Q 2169 2928 1744 2928 
Q 1347 2928 1158 2789 
Q 969 2650 878 2297 
L 328 2372 
Q 403 2725 575 2942 
Q 747 3159 1072 3276 
Q 1397 3394 1825 3394 
Q 2250 3394 2515 3294 
Q 2781 3194 2906 3042 
Q 3031 2891 3081 2659 
Q 3109 2516 3109 2141 
L 3109 1391 
Q 3109 606 3145 398 
Q 3181 191 3288 0 
L 2700 0 
Q 2613 175 2588 409 
z
M 2541 1666 
Q 2234 1541 1622 1453 
Q 1275 1403 1131 1340 
Q 988 1278 909 1158 
Q 831 1038 831 891 
Q 831 666 1001 516 
Q 1172 366 1500 366 
Q 1825 366 2078 508 
Q 2331 650 2450 897 
Q 2541 1088 2541 1459 
L 2541 1666 
z
" transform="scale(0.015625)"/>
       <path id="ArialMT-76" d="M 1344 0 
L 81 3319 
L 675 3319 
L 1388 1331 
Q 1503 1009 1600 663 
Q 1675 925 1809 1294 
L 2547 3319 
L 3125 3319 
L 1869 0 
L 1344 0 
z
" transform="scale(0.015625)"/>
       <path id="ArialMT-65" d="M 2694 1069 
L 3275 997 
Q 3138 488 2766 206 
Q 2394 -75 1816 -75 
Q 1088 -75 661 373 
Q 234 822 234 1631 
Q 234 2469 665 2931 
Q 1097 3394 1784 3394 
Q 2450 3394 2872 2941 
Q 3294 2488 3294 1666 
Q 3294 1616 3291 1516 
L 816 1516 
Q 847 969 1125 678 
Q 1403 388 1819 388 
Q 2128 388 2347 550 
Q 2566 713 2694 1069 
z
M 847 1978 
L 2700 1978 
Q 2663 2397 2488 2606 
Q 2219 2931 1791 2931 
Q 1403 2931 1139 2672 
Q 875 2413 847 1978 
z
" transform="scale(0.015625)"/>
       <path id="ArialMT-6c" d="M 409 0 
L 409 4581 
L 972 4581 
L 972 0 
L 409 0 
z
" transform="scale(0.015625)"/>
       <path id="ArialMT-6e" d="M 422 0 
L 422 3319 
L 928 3319 
L 928 2847 
Q 1294 3394 1984 3394 
Q 2284 3394 2536 3286 
Q 2788 3178 2913 3003 
Q 3038 2828 3088 2588 
Q 3119 2431 3119 2041 
L 3119 0 
L 2556 0 
L 2556 2019 
Q 2556 2363 2490 2533 
Q 2425 2703 2258 2804 
Q 2091 2906 1866 2906 
Q 1506 2906 1245 2678 
Q 984 2450 984 1813 
L 984 0 
L 422 0 
z
" transform="scale(0.015625)"/>
       <path id="ArialMT-67" d="M 319 -275 
L 866 -356 
Q 900 -609 1056 -725 
Q 1266 -881 1628 -881 
Q 2019 -881 2231 -725 
Q 2444 -569 2519 -288 
Q 2563 -116 2559 434 
Q 2191 0 1641 0 
Q 956 0 581 494 
Q 206 988 206 1678 
Q 206 2153 378 2554 
Q 550 2956 876 3175 
Q 1203 3394 1644 3394 
Q 2231 3394 2613 2919 
L 2613 3319 
L 3131 3319 
L 3131 450 
Q 3131 -325 2973 -648 
Q 2816 -972 2473 -1159 
Q 2131 -1347 1631 -1347 
Q 1038 -1347 672 -1080 
Q 306 -813 319 -275 
z
M 784 1719 
Q 784 1066 1043 766 
Q 1303 466 1694 466 
Q 2081 466 2343 764 
Q 2606 1063 2606 1700 
Q 2606 2309 2336 2618 
Q 2066 2928 1684 2928 
Q 1309 2928 1046 2623 
Q 784 2319 784 1719 
z
" transform="scale(0.015625)"/>
       <path id="ArialMT-74" d="M 1650 503 
L 1731 6 
Q 1494 -44 1306 -44 
Q 1000 -44 831 53 
Q 663 150 594 308 
Q 525 466 525 972 
L 525 2881 
L 113 2881 
L 113 3319 
L 525 3319 
L 525 4141 
L 1084 4478 
L 1084 3319 
L 1650 3319 
L 1650 2881 
L 1084 2881 
L 1084 941 
Q 1084 700 1114 631 
Q 1144 563 1211 522 
Q 1278 481 1403 481 
Q 1497 481 1650 503 
z
" transform="scale(0.015625)"/>
       <path id="ArialMT-68" d="M 422 0 
L 422 4581 
L 984 4581 
L 984 2938 
Q 1378 3394 1978 3394 
Q 2347 3394 2619 3248 
Q 2891 3103 3008 2847 
Q 3125 2591 3125 2103 
L 3125 0 
L 2563 0 
L 2563 2103 
Q 2563 2525 2380 2717 
Q 2197 2909 1863 2909 
Q 1613 2909 1392 2779 
Q 1172 2650 1078 2428 
Q 984 2206 984 1816 
L 984 0 
L 422 0 
z
" transform="scale(0.015625)"/>
       <path id="ArialMT-20" transform="scale(0.015625)"/>
       <path id="ArialMT-28" d="M 1497 -1347 
Q 1031 -759 709 28 
Q 388 816 388 1659 
Q 388 2403 628 3084 
Q 909 3875 1497 4659 
L 1900 4659 
Q 1522 4009 1400 3731 
Q 1209 3300 1100 2831 
Q 966 2247 966 1656 
Q 966 153 1900 -1347 
L 1497 -1347 
z
" transform="scale(0.015625)"/>
       <path id="ArialMT-6d" d="M 422 0 
L 422 3319 
L 925 3319 
L 925 2853 
Q 1081 3097 1340 3245 
Q 1600 3394 1931 3394 
Q 2300 3394 2536 3241 
Q 2772 3088 2869 2813 
Q 3263 3394 3894 3394 
Q 4388 3394 4653 3120 
Q 4919 2847 4919 2278 
L 4919 0 
L 4359 0 
L 4359 2091 
Q 4359 2428 4304 2576 
Q 4250 2725 4106 2815 
Q 3963 2906 3769 2906 
Q 3419 2906 3187 2673 
Q 2956 2441 2956 1928 
L 2956 0 
L 2394 0 
L 2394 2156 
Q 2394 2531 2256 2718 
Q 2119 2906 1806 2906 
Q 1569 2906 1367 2781 
Q 1166 2656 1075 2415 
Q 984 2175 984 1722 
L 984 0 
L 422 0 
z
" transform="scale(0.015625)"/>
       <path id="ArialMT-29" d="M 791 -1347 
L 388 -1347 
Q 1322 153 1322 1656 
Q 1322 2244 1188 2822 
Q 1081 3291 891 3722 
Q 769 4003 388 4659 
L 791 4659 
Q 1378 3875 1659 3084 
Q 1900 2403 1900 1659 
Q 1900 816 1576 28 
Q 1253 -759 791 -1347 
z
" transform="scale(0.015625)"/>
      </defs>
      <use xlink:href="#ArialMT-57"/>
      <use xlink:href="#ArialMT-61" x="90.634766"/>
      <use xlink:href="#ArialMT-76" x="146.25"/>
      <use xlink:href="#ArialMT-65" x="196.25"/>
      <use xlink:href="#ArialMT-6c" x="251.865234"/>
      <use xlink:href="#ArialMT-65" x="274.082031"/>
      <use xlink:href="#ArialMT-6e" x="329.697266"/>
      <use xlink:href="#ArialMT-67" x="385.3125"/>
      <use xlink:href="#ArialMT-74" x="440.927734"/>
      <use xlink:href="#ArialMT-68" x="468.710938"/>
      <use xlink:href="#ArialMT-20" x="524.326172"/>
      <use xlink:href="#ArialMT-28" x="552.109375"/>
      <use xlink:href="#ArialMT-6e" x="585.410156"/>
      <use xlink:href="#ArialMT-6d" x="641.025391"/>
      <use xlink:href="#ArialMT-29" x="724.326172"/>
     </g>
    </g>
   </g>
   <g id="matplotlib.axis_2">
    <g id="ytick_1">
     <g id="line2d_17">
      <path d="M 79.209375 156.918421 
L 637.209375 156.918421 
" clip-path="url(#p8c11cc01b6)" style="fill: none; stroke: #b0b0b0; stroke-linecap: square"/>
     </g>
     <g id="line2d_18">
      <defs>
       <path id="m8221cf77b6" d="M 0 0 
L -5 0 
" style="stroke: #000000; stroke-width: 2"/>
      </defs>
      <g>
       <use xlink:href="#m8221cf77b6" x="79.209375" y="156.918421" style="stroke: #000000; stroke-width: 2"/>
      </g>
     </g>
     <g id="text_10">
      <!-- 0.00 -->
      <g transform="translate(31.7875 164.076234) scale(0.2 -0.2)">
       <defs>
        <path id="ArialMT-2e" d="M 581 0 
L 581 641 
L 1222 641 
L 1222 0 
L 581 0 
z
" transform="scale(0.015625)"/>
       </defs>
       <use xlink:href="#ArialMT-30"/>
       <use xlink:href="#ArialMT-2e" x="55.615234"/>
       <use xlink:href="#ArialMT-30" x="83.398438"/>
       <use xlink:href="#ArialMT-30" x="139.013672"/>
      </g>
     </g>
    </g>
    <g id="ytick_2">
     <g id="line2d_19">
      <path d="M 79.209375 119.578816 
L 637.209375 119.578816 
" clip-path="url(#p8c11cc01b6)" style="fill: none; stroke: #b0b0b0; stroke-linecap: square"/>
     </g>
     <g id="line2d_20">
      <g>
       <use xlink:href="#m8221cf77b6" x="79.209375" y="119.578816" style="stroke: #000000; stroke-width: 2"/>
      </g>
     </g>
     <g id="text_11">
      <!-- 0.25 -->
      <g transform="translate(31.7875 126.736628) scale(0.2 -0.2)">
       <defs>
        <path id="ArialMT-32" d="M 3222 541 
L 3222 0 
L 194 0 
Q 188 203 259 391 
Q 375 700 629 1000 
Q 884 1300 1366 1694 
Q 2113 2306 2375 2664 
Q 2638 3022 2638 3341 
Q 2638 3675 2398 3904 
Q 2159 4134 1775 4134 
Q 1369 4134 1125 3890 
Q 881 3647 878 3216 
L 300 3275 
Q 359 3922 746 4261 
Q 1134 4600 1788 4600 
Q 2447 4600 2831 4234 
Q 3216 3869 3216 3328 
Q 3216 3053 3103 2787 
Q 2991 2522 2730 2228 
Q 2469 1934 1863 1422 
Q 1356 997 1212 845 
Q 1069 694 975 541 
L 3222 541 
z
" transform="scale(0.015625)"/>
       </defs>
       <use xlink:href="#ArialMT-30"/>
       <use xlink:href="#ArialMT-2e" x="55.615234"/>
       <use xlink:href="#ArialMT-32" x="83.398438"/>
       <use xlink:href="#ArialMT-35" x="139.013672"/>
      </g>
     </g>
    </g>
    <g id="ytick_3">
     <g id="line2d_21">
      <path d="M 79.209375 82.239211 
L 637.209375 82.239211 
" clip-path="url(#p8c11cc01b6)" style="fill: none; stroke: #b0b0b0; stroke-linecap: square"/>
     </g>
     <g id="line2d_22">
      <g>
       <use xlink:href="#m8221cf77b6" x="79.209375" y="82.239211" style="stroke: #000000; stroke-width: 2"/>
      </g>
     </g>
     <g id="text_12">
      <!-- 0.50 -->
      <g transform="translate(31.7875 89.397023) scale(0.2 -0.2)">
       <use xlink:href="#ArialMT-30"/>
       <use xlink:href="#ArialMT-2e" x="55.615234"/>
       <use xlink:href="#ArialMT-35" x="83.398438"/>
       <use xlink:href="#ArialMT-30" x="139.013672"/>
      </g>
     </g>
    </g>
    <g id="ytick_4">
     <g id="line2d_23">
      <path d="M 79.209375 44.899605 
L 637.209375 44.899605 
" clip-path="url(#p8c11cc01b6)" style="fill: none; stroke: #b0b0b0; stroke-linecap: square"/>
     </g>
     <g id="line2d_24">
      <g>
       <use xlink:href="#m8221cf77b6" x="79.209375" y="44.899605" style="stroke: #000000; stroke-width: 2"/>
      </g>
     </g>
     <g id="text_13">
      <!-- 0.75 -->
      <g transform="translate(31.7875 52.057418) scale(0.2 -0.2)">
       <use xlink:href="#ArialMT-30"/>
       <use xlink:href="#ArialMT-2e" x="55.615234"/>
       <use xlink:href="#ArialMT-37" x="83.398438"/>
       <use xlink:href="#ArialMT-35" x="139.013672"/>
      </g>
     </g>
    </g>
    <g id="ytick_5">
     <g id="line2d_25">
      <path d="M 79.209375 7.56 
L 637.209375 7.56 
" clip-path="url(#p8c11cc01b6)" style="fill: none; stroke: #b0b0b0; stroke-linecap: square"/>
     </g>
     <g id="line2d_26">
      <g>
       <use xlink:href="#m8221cf77b6" x="79.209375" y="7.56" style="stroke: #000000; stroke-width: 2"/>
      </g>
     </g>
     <g id="text_14">
      <!-- 1.00 -->
      <g transform="translate(31.7875 14.717813) scale(0.2 -0.2)">
       <defs>
        <path id="ArialMT-31" d="M 2384 0 
L 1822 0 
L 1822 3584 
Q 1619 3391 1289 3197 
Q 959 3003 697 2906 
L 697 3450 
Q 1169 3672 1522 3987 
Q 1875 4303 2022 4600 
L 2384 4600 
L 2384 0 
z
" transform="scale(0.015625)"/>
       </defs>
       <use xlink:href="#ArialMT-31"/>
       <use xlink:href="#ArialMT-2e" x="55.615234"/>
       <use xlink:href="#ArialMT-30" x="83.398438"/>
       <use xlink:href="#ArialMT-30" x="139.013672"/>
      </g>
     </g>
    </g>
    <g id="text_15">
     <!-- Intensity -->
     <g transform="translate(21.473437 139.018594) rotate(-90) scale(0.3 -0.3)">
      <defs>
       <path id="ArialMT-49" d="M 597 0 
L 597 4581 
L 1203 4581 
L 1203 0 
L 597 0 
z
" transform="scale(0.015625)"/>
       <path id="ArialMT-73" d="M 197 991 
L 753 1078 
Q 800 744 1014 566 
Q 1228 388 1613 388 
Q 2000 388 2187 545 
Q 2375 703 2375 916 
Q 2375 1106 2209 1216 
Q 2094 1291 1634 1406 
Q 1016 1563 777 1677 
Q 538 1791 414 1992 
Q 291 2194 291 2438 
Q 291 2659 392 2848 
Q 494 3038 669 3163 
Q 800 3259 1026 3326 
Q 1253 3394 1513 3394 
Q 1903 3394 2198 3281 
Q 2494 3169 2634 2976 
Q 2775 2784 2828 2463 
L 2278 2388 
Q 2241 2644 2061 2787 
Q 1881 2931 1553 2931 
Q 1166 2931 1000 2803 
Q 834 2675 834 2503 
Q 834 2394 903 2306 
Q 972 2216 1119 2156 
Q 1203 2125 1616 2013 
Q 2213 1853 2448 1751 
Q 2684 1650 2818 1456 
Q 2953 1263 2953 975 
Q 2953 694 2789 445 
Q 2625 197 2315 61 
Q 2006 -75 1616 -75 
Q 969 -75 630 194 
Q 291 463 197 991 
z
" transform="scale(0.015625)"/>
       <path id="ArialMT-69" d="M 425 3934 
L 425 4581 
L 988 4581 
L 988 3934 
L 425 3934 
z
M 425 0 
L 425 3319 
L 988 3319 
L 988 0 
L 425 0 
z
" transform="scale(0.015625)"/>
       <path id="ArialMT-79" d="M 397 -1278 
L 334 -750 
Q 519 -800 656 -800 
Q 844 -800 956 -737 
Q 1069 -675 1141 -563 
Q 1194 -478 1313 -144 
Q 1328 -97 1363 -6 
L 103 3319 
L 709 3319 
L 1400 1397 
Q 1534 1031 1641 628 
Q 1738 1016 1872 1384 
L 2581 3319 
L 3144 3319 
L 1881 -56 
Q 1678 -603 1566 -809 
Q 1416 -1088 1222 -1217 
Q 1028 -1347 759 -1347 
Q 597 -1347 397 -1278 
z
" transform="scale(0.015625)"/>
      </defs>
      <use xlink:href="#ArialMT-49"/>
      <use xlink:href="#ArialMT-6e" x="27.783203"/>
      <use xlink:href="#ArialMT-74" x="83.398438"/>
      <use xlink:href="#ArialMT-65" x="111.181641"/>
      <use xlink:href="#ArialMT-6e" x="166.796875"/>
      <use xlink:href="#ArialMT-73" x="222.412109"/>
      <use xlink:href="#ArialMT-69" x="272.412109"/>
      <use xlink:href="#ArialMT-74" x="294.628906"/>
      <use xlink:href="#ArialMT-79" x="322.412109"/>
     </g>
    </g>
   </g>
   <g id="line2d_27">
    <path d="M 79.209375 152.549762 
L 91.963661 156.339697 
L 104.717946 156.918421 
L 117.472232 156.918421 
L 130.226518 156.918421 
L 142.980804 156.918421 
L 155.735089 156.918421 
L 168.489375 156.918421 
L 181.243661 156.918421 
L 193.997946 156.918421 
L 206.752232 156.918421 
L 219.506518 156.918421 
L 232.260804 156.918421 
L 245.015089 156.918421 
L 257.769375 156.918421 
L 270.523661 30.996685 
L 283.277946 101.95425 
L 296.032232 148.298656 
L 308.786518 156.918421 
L 321.540804 142.042256 
L 334.295089 7.56 
L 347.049375 10.737963 
L 359.803661 156.918421 
L 372.557946 156.918421 
L 385.312232 149.034318 
L 398.066518 141.111308 
L 410.820804 145.793853 
L 423.575089 151.90952 
L 436.329375 156.918421 
L 449.083661 156.918421 
L 461.837946 142.809844 
L 474.592232 99.753621 
L 487.346518 148.08651 
L 500.100804 156.918421 
L 512.855089 156.142682 
L 525.609375 154.899956 
L 538.363661 153.813625 
L 551.117946 152.600517 
L 563.872232 154.302861 
L 576.626518 153.168021 
L 589.380804 156.918421 
L 602.135089 153.302123 
L 614.889375 149.694961 
L 627.643661 156.916499 
L 640.397946 142.70106 
" clip-path="url(#p8c11cc01b6)" style="fill: none; stroke: #ffa500; stroke-width: 3; stroke-linecap: square"/>
   </g>
   <g id="line2d_28">
    <path d="M -0.504911 156.230089 
L 1.089375 157.416137 
L 2.683661 156.501109 
L 4.277946 157.04315 
L 5.872232 155.098368 
L 7.466518 155.857856 
L 9.060804 156.877842 
L 10.655089 157.070215 
L 12.249375 155.695541 
L 13.843661 155.728108 
L 15.437946 155.460833 
L 17.032232 157.118805 
L 18.626518 157.830939 
L 20.220804 155.887913 
L 21.815089 154.621461 
L 23.409375 157.970975 
L 25.003661 157.397604 
L 26.597946 155.30852 
L 28.192232 155.809265 
L 29.786518 156.031695 
L 31.380804 157.988754 
L 32.975089 155.550003 
L 34.569375 155.709808 
L 37.757946 157.387836 
L 39.352232 155.604615 
L 40.946518 155.238404 
L 42.540804 158.296607 
L 44.135089 154.744434 
L 45.729375 156.93672 
L 47.323661 155.909958 
L 48.917946 156.031695 
L 50.512232 156.272658 
L 52.106518 157.309188 
L 53.700804 156.681204 
L 55.295089 156.452519 
L 56.889375 155.368152 
L 58.483661 156.728039 
L 60.077946 156.013162 
L 61.672232 156.195766 
L 63.266518 155.385931 
L 64.860804 153.865719 
L 66.455089 156.774639 
L 68.049375 155.630407 
L 69.643661 156.319258 
L 71.237946 155.620639 
L 72.832232 157.049925 
L 74.426518 156.472808 
L 76.020804 156.912165 
L 77.615089 155.060299 
L 79.209375 155.681507 
L 80.803661 154.972886 
L 82.397946 156.286691 
L 83.992232 154.491193 
L 85.586518 156.076539 
L 87.180804 155.313305 
L 88.775089 157.679665 
L 90.369375 155.782954 
L 91.963661 156.290957 
L 93.557946 155.991116 
L 95.152232 154.206139 
L 96.746518 155.301028 
L 98.340804 157.818661 
L 99.935089 158.254272 
L 101.529375 155.264195 
L 103.123661 155.076842 
L 104.717946 155.607125 
L 107.906518 157.628799 
L 109.500804 153.644329 
L 111.095089 153.992241 
L 112.689375 156.228853 
L 114.283661 150.95214 
L 115.877946 140.360645 
L 117.472232 131.632775 
L 119.066518 144.071585 
L 120.660804 142.911848 
L 122.255089 136.686539 
L 123.849375 138.237328 
L 125.443661 132.853146 
L 127.037946 124.659305 
L 128.632232 114.118157 
L 130.226518 123.307949 
L 131.820804 115.854543 
L 133.415089 106.758186 
L 135.009375 126.459785 
L 136.603661 140.661723 
L 138.197946 148.979576 
L 139.792232 148.692013 
L 141.386518 152.291218 
L 144.575089 152.199019 
L 146.169375 153.549138 
L 147.763661 154.141525 
L 149.357946 157.004364 
L 150.952232 154.424823 
L 152.546518 155.023986 
L 154.140804 155.973336 
L 155.735089 156.420705 
L 157.329375 155.270971 
L 158.923661 153.947397 
L 160.517946 155.962815 
L 162.112232 156.488832 
L 165.300804 156.183488 
L 166.895089 154.534282 
L 168.489375 155.975092 
L 170.083661 156.950988 
L 171.677946 155.673495 
L 173.272232 155.244659 
L 174.866518 156.944213 
L 176.460804 156.371595 
L 178.055089 156.560221 
L 179.649375 157.329477 
L 181.243661 155.895925 
L 182.837946 157.244054 
L 184.432232 155.71583 
L 186.026518 156.561977 
L 187.620804 156.796685 
L 189.215089 157.288898 
L 190.809375 155.556258 
L 192.403661 156.092563 
L 193.997946 156.774639 
L 195.592232 158.193404 
L 197.186518 156.333292 
L 198.780804 154.732156 
L 200.375089 155.048541 
L 201.969375 154.987673 
L 203.563661 157.788604 
L 205.157946 157.213996 
L 206.752232 157.264343 
L 209.940804 154.910261 
L 211.535089 156.34756 
L 213.129375 157.587466 
L 214.723661 157.197219 
L 216.317946 155.660984 
L 217.912232 154.351693 
L 219.506518 154.34644 
L 221.100804 155.690288 
L 222.695089 156.580277 
L 224.289375 155.4934 
L 225.883661 158.76 
L 227.477946 155.948781 
L 229.072232 156.501109 
L 230.666518 157.648854 
L 232.260804 156.339548 
L 233.855089 156.992803 
L 235.449375 156.732304 
L 237.043661 157.244054 
L 238.637946 155.739865 
L 240.232232 156.268392 
L 241.826518 157.284633 
L 243.420804 156.12314 
L 245.015089 157.29691 
L 246.609375 155.93826 
L 248.203661 154.835359 
L 249.797946 154.845881 
L 251.392232 152.030396 
L 252.986518 154.928275 
L 254.580804 153.021276 
L 256.175089 150.841553 
L 257.769375 149.909696 
L 259.363661 150.146913 
L 260.957946 148.04005 
L 262.552232 147.110792 
L 265.740804 134.669472 
L 267.335089 135.012922 
L 268.929375 136.909633 
L 270.523661 122.462233 
L 272.117946 88.009163 
L 273.712232 63.232793 
L 275.306518 64.721155 
L 276.900804 37.029325 
L 278.495089 58.100579 
L 280.089375 118.688758 
L 281.683661 112.581921 
L 283.277946 116.650541 
L 284.872232 136.036795 
L 286.466518 146.997728 
L 288.060804 145.451205 
L 289.655089 145.451205 
L 304.003661 135.741484 
L 305.597946 143.496714 
L 307.192232 135.741484 
L 308.786518 126.946602 
L 310.380804 137.494118 
L 311.975089 146.416644 
L 313.569375 144.925186 
L 315.163661 143.273454 
L 316.757946 148.812547 
L 318.352232 142.152254 
L 319.946518 128.764908 
L 321.540804 125.309682 
L 323.135089 126.481228 
L 324.729375 134.110979 
L 326.323661 135.940281 
L 327.917946 131.243303 
L 329.512232 135.39598 
L 331.106518 139.157235 
L 332.700804 131.467403 
L 334.295089 140.365436 
L 335.889375 144.162579 
L 337.483661 142.87936 
L 339.077946 137.207114 
L 340.672232 99.68354 
L 342.266518 7.56 
L 343.860804 106.62829 
L 345.455089 129.962569 
L 347.049375 87.99538 
L 348.643661 18.090188 
L 350.237946 110.585208 
L 351.832232 139.921678 
L 353.426518 146.860141 
L 355.020804 148.350016 
L 356.615089 150.726897 
L 358.209375 151.046778 
L 359.803661 152.54242 
L 361.397946 153.174654 
L 362.992232 153.269076 
L 364.586518 153.138341 
L 366.180804 155.240674 
L 367.775089 153.183388 
L 369.369375 156.163697 
L 370.963661 155.269713 
L 372.557946 154.930046 
L 374.152232 153.324645 
L 375.746518 153.525783 
L 377.340804 152.873764 
L 378.935089 153.552561 
L 380.529375 151.679886 
L 382.123661 151.216727 
L 383.717946 149.334283 
L 385.312232 147.894995 
L 386.906518 140.626955 
L 388.500804 138.676868 
L 390.095089 138.308901 
L 391.689375 132.390799 
L 393.283661 132.287845 
L 394.877946 135.31862 
L 396.472232 143.647173 
L 398.066518 145.678418 
L 399.660804 145.471024 
L 401.255089 146.586971 
L 402.849375 143.774214 
L 404.443661 144.132882 
L 406.037946 135.855128 
L 407.632232 140.925342 
L 409.226518 147.868736 
L 410.820804 153.282061 
L 412.415089 153.14681 
L 414.009375 151.860069 
L 415.603661 152.880576 
L 417.197946 152.671894 
L 418.792232 153.407112 
L 420.386518 152.704227 
L 421.980804 153.629542 
L 423.575089 153.380801 
L 425.169375 154.03282 
L 426.763661 155.4934 
L 428.357946 154.157549 
L 429.952232 156.646881 
L 431.546518 155.303018 
L 433.140804 155.764421 
L 434.735089 155.723842 
L 436.329375 156.699737 
L 437.923661 156.610568 
L 439.517946 154.434305 
L 441.112232 156.026193 
L 442.706518 156.227813 
L 445.895089 155.600349 
L 447.489375 156.839253 
L 449.083661 157.63681 
L 450.677946 155.766177 
L 452.272232 155.855866 
L 453.866518 154.730166 
L 455.460804 157.047416 
L 457.055089 157.602253 
L 458.649375 156.988304 
L 460.243661 155.970073 
L 463.432232 154.648255 
L 465.026518 156.508134 
L 466.620804 156.066267 
L 468.215089 153.209216 
L 469.809375 156.290702 
L 471.403661 152.541921 
L 472.997946 146.765439 
L 474.592232 125.425037 
L 476.186518 133.535521 
L 477.780804 149.258003 
L 479.375089 153.467221 
L 480.969375 155.673006 
L 482.563661 149.513504 
L 484.157946 140.457416 
L 485.752232 146.367174 
L 487.346518 150.683264 
L 488.940804 153.678096 
L 490.535089 154.927002 
L 492.129375 155.500373 
L 493.723661 156.571745 
L 495.317946 155.474347 
L 496.912232 155.251398 
L 498.506518 157.65658 
L 500.100804 153.8003 
L 501.695089 154.829337 
L 503.289375 154.40975 
L 504.883661 155.31103 
L 506.477946 156.989057 
L 508.072232 156.798675 
L 509.666518 158.705388 
L 512.855089 156.133142 
L 514.449375 156.051984 
L 516.043661 156.68746 
L 517.637946 155.827045 
L 519.232232 156.934445 
L 520.826518 155.90218 
L 522.420804 158.039855 
L 524.015089 157.83947 
L 525.609375 158.055878 
L 527.203661 155.64894 
L 528.797946 156.045962 
L 530.392232 157.930396 
L 531.986518 156.48333 
L 533.580804 155.782954 
L 536.769375 156.102331 
L 538.363661 158.074178 
L 539.957946 157.420403 
L 541.552232 156.171211 
L 543.146518 155.908202 
L 544.740804 156.73406 
L 546.335089 156.134898 
L 547.929375 156.586533 
L 549.523661 157.527871 
L 551.117946 153.62603 
L 552.712232 155.42703 
L 554.306518 154.760977 
L 555.900804 155.467089 
L 557.495089 157.45245 
L 559.089375 155.262959 
L 560.683661 155.732373 
L 562.277946 155.414752 
L 563.872232 155.997891 
L 565.466518 156.043972 
L 567.060804 155.151744 
L 568.655089 156.655413 
L 570.249375 155.313305 
L 571.843661 156.151441 
L 573.437946 155.65145 
L 575.032232 156.256114 
L 576.626518 157.0056 
L 578.220804 156.422461 
L 579.815089 155.056553 
L 581.409375 155.63116 
L 583.003661 157.436426 
L 584.597946 156.795448 
L 586.192232 156.758616 
L 587.786518 155.507668 
L 589.380804 156.284935 
L 590.975089 157.370056 
L 592.569375 155.246415 
L 594.163661 157.167162 
L 595.757946 156.479064 
L 597.352232 154.772735 
L 598.946518 155.827279 
L 600.540804 155.758918 
L 602.135089 155.900191 
L 603.729375 155.734363 
L 605.323661 157.132839 
L 606.917946 157.041913 
L 608.512232 155.256937 
L 610.106518 155.910712 
L 611.700804 155.092866 
L 613.295089 158.219949 
L 614.889375 155.684016 
L 616.483661 156.321248 
L 618.077946 156.12513 
L 619.672232 156.1915 
L 621.266518 157.922384 
L 622.860804 155.570292 
L 624.455089 156.133142 
L 626.049375 157.559919 
L 627.643661 157.100272 
L 629.237946 157.43268 
L 630.832232 155.367632 
L 632.426518 155.961059 
L 634.020804 157.236042 
L 635.615089 157.16114 
L 637.209375 157.800882 
L 637.209375 157.800882 
" clip-path="url(#p8c11cc01b6)" style="fill: none; stroke-dasharray: 11.1,4.8; stroke-dashoffset: 0; stroke: #000000; stroke-width: 3"/>
   </g>
   <g id="patch_3">
    <path d="M 79.209375 166.32 
L 79.209375 0 
" style="fill: none; stroke: #000000; stroke-width: 2; stroke-linejoin: miter; stroke-linecap: square"/>
   </g>
   <g id="patch_4">
    <path d="M 79.209375 166.32 
L 637.209375 166.32 
" style="fill: none; stroke: #000000; stroke-width: 2; stroke-linejoin: miter; stroke-linecap: square"/>
   </g>
  </g>
 </g>
 <defs>
  <clipPath id="p8c11cc01b6">
   <rect x="79.209375" y="0" width="558" height="166.32"/>
  </clipPath>
 </defs>
</svg>
